<svg xmlns="http://www.w3.org/2000/svg" xmlns:xlink="http://www.w3.org/1999/xlink" width="1080" zoomAndPan="magnify" viewBox="0 0 810 809.999993" height="1080" preserveAspectRatio="xMidYMid meet" version="1.0"><defs><clipPath id="e823a7f1cd"><path d="M 383 81 L 798 81 L 798 739.5 L 383 739.5 Z M 383 81 " clip-rule="nonzero"/></clipPath><clipPath id="cd41fda0b7"><path d="M 12.101562 81 L 392 81 L 392 654 L 12.101562 654 Z M 12.101562 81 " clip-rule="nonzero"/></clipPath></defs><path fill="#004aad" d="M 186.433594 389.074219 C 183.261719 389.003906 180.039062 389.773438 177.09375 391.46875 C 170.054688 395.53125 166.828125 403.652344 168.65625 411.164062 L 160.691406 415.152344 C 155.769531 389.746094 156.410156 363.0625 163.28125 336.964844 C 167.300781 321.730469 173.253906 307.378906 180.863281 294.152344 L 176.769531 290.195312 L 193.796875 306.65625 C 190.558594 312.046875 190.265625 318.988281 193.632812 324.824219 C 195.417969 327.917969 197.996094 330.277344 200.949219 331.796875 L 186.429688 389.074219 Z M 202.46875 399.910156 C 202.183594 399.265625 201.871094 398.632812 201.515625 398.011719 C 199.726562 394.917969 197.152344 392.554688 194.1875 391.039062 L 208.710938 333.753906 C 211.648438 333.828125 214.636719 333.175781 217.398438 331.726562 L 254.941406 375.617188 C 251.21875 380.066406 249.25 385.699219 249.3125 391.417969 Z M 306.445312 301.332031 C 303.023438 304.363281 300.785156 308.378906 299.898438 312.683594 L 226.578125 312.035156 C 226.300781 310.804688 225.902344 309.597656 225.359375 308.417969 L 273.726562 271.15625 C 278.367188 274.976562 284.726562 276.261719 290.554688 274.40625 Z M 299.816406 320.695312 L 226.503906 320.042969 C 225.941406 322.367188 224.925781 324.578125 223.484375 326.523438 L 261.027344 370.414062 C 261.140625 370.34375 261.269531 370.277344 261.394531 370.199219 C 268.164062 366.289062 276.0625 366.035156 282.769531 368.832031 L 305.988281 331.988281 C 304.554688 330.632812 303.289062 329.054688 302.257812 327.253906 C 301.042969 325.160156 300.242188 322.9375 299.816406 320.691406 Z M 312.765625 336.253906 C 316.210938 337.582031 319.988281 337.996094 323.691406 337.375 L 348.65625 403.679688 C 346.328125 405.214844 344.464844 407.214844 343.113281 409.472656 L 297.351562 394.648438 C 298.125 389.441406 297.210938 383.957031 294.378906 379.046875 C 293.058594 376.753906 291.414062 374.765625 289.550781 373.097656 Z M 353.183594 256.390625 C 353.648438 258.074219 354.332031 259.726562 355.246094 261.3125 C 355.871094 262.394531 356.570312 263.394531 357.34375 264.316406 L 329.917969 298.457031 C 324.882812 295.832031 318.878906 295.300781 313.335938 297.265625 L 297.445312 270.335938 C 300.382812 267.558594 302.234375 263.914062 302.835938 260.050781 Z M 340.949219 314.945312 L 407.019531 321.65625 C 407.96875 318.472656 409.679688 315.503906 412.046875 313.046875 L 381.710938 269.90625 C 375.757812 272.566406 369.082031 272.203125 363.589844 269.324219 L 336.15625 303.46875 C 336.929688 304.390625 337.632812 305.394531 338.257812 306.472656 C 339.8125 309.160156 340.691406 312.046875 340.953125 314.945312 Z M 388.25 265.308594 C 394.496094 258.796875 395.976562 248.726562 391.238281 240.527344 C 391.011719 240.128906 390.765625 239.738281 390.515625 239.355469 L 414.675781 215.269531 C 477.382812 245.886719 501.09375 281.199219 485.816406 321.210938 L 447.871094 322.847656 C 447.402344 320.898438 446.660156 318.976562 445.601562 317.152344 C 440.121094 307.65625 428.386719 304.019531 418.597656 308.433594 L 388.25 265.300781 Z M 374.167969 409.695312 C 373.632812 408.761719 373.027344 407.898438 372.355469 407.097656 L 417.957031 346.734375 C 424.070312 349.730469 431.519531 349.722656 437.859375 346.066406 C 443.671875 342.707031 447.296875 337.007812 448.203125 330.851562 L 482.183594 329.386719 C 474.96875 343.664062 462.945312 358.523438 446.105469 373.957031 C 442.222656 416.824219 422.789062 441 387.820312 446.511719 L 373.066406 429.390625 C 377.1875 423.796875 377.863281 416.089844 374.167969 409.695312 Z M 250.734375 399.300781 L 203.878906 407.785156 C 203.734375 411 202.707031 414.144531 200.917969 416.835938 L 238.53125 456.53125 C 238.757812 456.382812 239.003906 456.238281 239.242188 456.097656 C 243.050781 453.910156 247.265625 453.054688 251.335938 453.410156 L 263.019531 412.898438 C 258.777344 410.863281 255.074219 407.574219 252.550781 403.1875 C 251.808594 401.925781 251.214844 400.625 250.734375 399.300781 Z M 232.722656 462.035156 C 228.195312 468.421875 227.511719 477.109375 231.679688 484.320312 C 233.894531 488.164062 237.160156 491.019531 240.886719 492.75 L 232.957031 525.300781 C 231.914062 524.859375 230.914062 524.390625 229.929688 523.878906 C 195.445312 498.84375 172.09375 462.867188 162.445312 423.222656 L 172.238281 418.328125 C 177.695312 424.957031 187.292969 426.867188 194.96875 422.429688 C 195.019531 422.40625 195.058594 422.371094 195.109375 422.351562 L 232.726562 462.035156 Z M 344.742188 430.214844 L 269.472656 468.390625 C 271.980469 477.269531 268.261719 487.0625 259.910156 491.886719 C 256.367188 493.941406 252.46875 494.8125 248.667969 494.640625 L 240.589844 527.761719 C 252.84375 530.628906 268.207031 529.523438 286.691406 524.46875 C 303.589844 564.925781 316.980469 584.148438 326.878906 582.15625 L 331.347656 579.574219 C 340.308594 570.617188 345.617188 539.558594 347.269531 486.394531 C 364.117188 479.855469 375.589844 468.273438 381.679688 451.648438 L 366.992188 434.605469 C 359.390625 438.636719 350.09375 436.664062 344.738281 430.210938 Z M 340.652344 417.101562 C 340.464844 419.078125 340.613281 421.097656 341.105469 423.066406 L 265.84375 461.253906 C 263.96875 458.851562 261.632812 456.964844 259.03125 455.625 L 270.710938 415.113281 C 275.675781 415.691406 280.867188 414.722656 285.53125 412.035156 C 289.667969 409.644531 292.832031 406.214844 294.882812 402.269531 Z M 365.96875 402.277344 L 411.554688 341.910156 C 410.585938 340.832031 409.707031 339.628906 408.949219 338.324219 C 407.363281 335.570312 406.460938 332.597656 406.199219 329.625 L 340.140625 322.914062 C 338.714844 327.589844 335.644531 331.789062 331.1875 334.542969 L 356.144531 400.847656 C 359.5 400.398438 362.914062 400.90625 365.96875 402.273438 Z M 289.390625 239.914062 C 293.964844 241.039062 298.09375 243.957031 300.632812 248.355469 C 301.328125 249.554688 301.863281 250.792969 302.253906 252.0625 L 352.609375 248.40625 C 353.375 242.148438 356.972656 236.320312 362.851562 232.921875 C 369.957031 228.820312 378.480469 229.394531 384.863281 233.683594 L 406.140625 212.476562 C 372.25 199.851562 333.480469 200.042969 289.8125 213.035156 Z M 183.242188 284.15625 C 183.046875 284.359375 182.851562 284.5625 182.65625 284.761719 C 182.851562 284.5625 183.046875 284.359375 183.242188 284.15625 Z M 184.601562 282.707031 C 184.195312 283.152344 183.792969 283.585938 183.386719 284.007812 C 183.792969 283.585938 184.195312 283.152344 184.601562 282.707031 Z M 185.300781 281.933594 C 185.105469 282.152344 184.921875 282.351562 184.742188 282.5625 C 184.921875 282.351562 185.105469 282.152344 185.300781 281.933594 Z M 185.945312 281.199219 L 185.367188 281.855469 C 185.554688 281.636719 185.75 281.421875 185.945312 281.199219 Z M 200.175781 300.40625 C 206.808594 296.574219 214.875 297.480469 220.476562 302.082031 L 268.839844 264.8125 C 264.996094 256.488281 268.066406 246.472656 276.15625 241.800781 C 277.824219 240.828125 279.589844 240.167969 281.390625 239.78125 L 281.765625 215.558594 C 259.46875 222.890625 242.683594 231.277344 229.683594 239.761719 C 212.09375 252.589844 196.933594 268.632812 185.117188 287.132812 L 182.660156 284.761719 L 199.371094 300.902344 C 199.621094 300.734375 199.898438 300.566406 200.179688 300.40625 Z M 200.175781 300.40625 " fill-opacity="1" fill-rule="evenodd"/><g clip-path="url(#e823a7f1cd)"><path fill="#004aad" d="M 681.207031 300.386719 L 626.113281 300.386719 L 626.113281 250.804688 L 576.519531 250.804688 L 576.519531 195.703125 L 626.113281 195.703125 L 626.113281 146.121094 L 681.207031 146.121094 L 681.207031 195.703125 L 730.796875 195.703125 L 730.796875 250.804688 L 681.207031 250.804688 Z M 597.515625 441.894531 C 617.980469 462.53125 618.980469 475.644531 600.511719 481.234375 C 611.898438 486.746094 617.566406 491.421875 617.8125 496.816406 C 618.398438 509.628906 603.730469 505.484375 606.511719 523.453125 C 614.28125 573.441406 623.109375 593.132812 554.332031 599.367188 C 501.144531 611.460938 467.597656 658.296875 453.6875 739.859375 C 1148.566406 229.839844 614.441406 -88.644531 383.679688 177.226562 C 446.175781 188.214844 494.09375 230.367188 527.445312 303.6875 C 554.40625 362.957031 552.820312 368.480469 606.457031 398.242188 C 631.21875 411.984375 618.105469 421.945312 597.515625 441.890625 Z M 597.515625 441.894531 " fill-opacity="1" fill-rule="evenodd"/></g><g clip-path="url(#cd41fda0b7)"><path fill="#ffff00" d="M 355.816406 176.335938 C 367.097656 163.84375 378.972656 151.886719 391.386719 140.5 C 87.730469 -54.410156 -201.414062 259.066406 233.300781 653.015625 C 270.324219 594.816406 201.777344 545.398438 171.328125 498.164062 C 70.375 341.5 175.929688 183.898438 355.816406 176.335938 Z M 355.816406 176.335938 " fill-opacity="1" fill-rule="evenodd"/></g></svg>